<?xml version="1.0" standalone="no"?>
<!DOCTYPE svg PUBLIC "-//W3C//DTD SVG 20010904//EN"
 "http://www.w3.org/TR/2001/REC-SVG-20010904/DTD/svg10.dtd">
<svg version="1.0" xmlns="http://www.w3.org/2000/svg"
 width="2363.000000pt" height="660.000000pt" viewBox="0 0 2363.000000 660.000000"
 preserveAspectRatio="xMidYMid meet">
<metadata>
Created by potrace 1.16, written by Peter Selinger 2001-2019
</metadata>
<g transform="translate(0.000000,660.000000) scale(0.100000,-0.100000)"
fill="#000000" stroke="none">
<path d="M13166 6078 c-3 -7 -10 -49 -16 -92 -15 -99 -132 -471 -213 -675 -75
-191 -173 -384 -238 -473 l-50 -67 126 -593 c69 -326 128 -598 130 -605 2 -6
-42 -34 -98 -62 -119 -59 -202 -123 -269 -206 -64 -79 -89 -148 -96 -262 -5
-93 -5 -93 19 -93 18 0 30 11 48 45 37 70 123 158 188 192 111 59 475 190 802
289 222 67 334 116 437 189 75 54 148 133 179 195 51 100 74 271 39 284 -22 9
-30 2 -70 -62 -74 -117 -137 -166 -297 -228 -61 -24 -112 -43 -113 -41 -1 1
42 211 97 466 54 256 99 473 99 483 0 11 -19 45 -43 76 -56 73 -122 196 -193
358 -77 177 -229 637 -256 778 l-23 116 -93 0 c-65 0 -94 -4 -96 -12z m-123
-2276 c-26 -23 -39 -29 -44 -20 -3 7 -45 213 -93 458 l-88 446 129 205 128
205 3 -630 3 -631 -38 -33z m536 1088 c66 -107 121 -203 121 -215 0 -21 -170
-897 -176 -904 -1 -1 -21 12 -43 30 l-41 32 0 636 c0 370 4 631 9 626 5 -6 63
-98 130 -205z"/>
<path d="M3740 4395 l0 -385 425 0 425 0 0 140 c0 77 2 140 5 140 5 0 906
-518 913 -524 3 -3 -903 -526 -911 -526 -4 0 -7 61 -7 135 l0 135 -422 -2
-423 -3 -3 -912 -2 -913 320 0 320 0 0 590 0 589 548 3 547 3 73 27 c112 41
178 84 277 183 144 144 234 323 271 538 24 139 15 370 -20 502 -82 313 -279
544 -541 633 l-80 27 -857 3 -858 3 0 -386z"/>
<path d="M9160 4395 l0 -385 425 0 424 0 3 140 3 141 453 -262 c249 -144 450
-265 445 -270 -10 -9 -891 -519 -898 -519 -2 0 -6 60 -7 133 l-3 132 -422 3
-423 2 0 -915 0 -915 315 0 315 0 0 590 0 590 208 0 207 0 414 -596 c228 -328
419 -598 425 -600 6 -2 181 -3 389 -2 l378 3 -348 500 c-192 275 -383 550
-426 612 l-77 111 66 31 c269 126 450 402 494 755 58 455 -165 911 -514 1053
-124 51 -150 52 -1028 53 l-818 0 0 -385z"/>
<path d="M14892 3628 l3 -1153 28 -88 c87 -280 280 -507 559 -656 307 -166
720 -206 1074 -105 109 31 293 118 382 180 260 182 426 442 462 725 6 54 10
471 10 1166 l0 1083 -330 0 -330 0 -2 -1398 -3 -1398 -597 145 -598 146 0
1252 0 1253 -330 0 -330 0 2 -1152z"/>
<path d="M17840 4395 l0 -385 425 0 424 0 3 140 3 140 453 -261 c249 -144 450
-265 445 -270 -9 -9 -892 -519 -898 -519 -3 0 -6 60 -7 133 l-3 132 -422 3
-423 2 0 -915 0 -915 315 0 315 0 0 590 0 590 208 0 207 -1 415 -599 415 -599
388 0 c308 -1 387 2 381 12 -5 6 -194 280 -422 606 -227 327 -414 598 -415
602 -1 4 34 25 78 48 282 141 459 446 481 826 11 194 -23 378 -102 544 -96
204 -253 363 -426 432 -117 47 -152 48 -1020 49 l-818 0 0 -385z"/>
<path d="M1522 4718 c-11 -29 -266 -694 -567 -1478 -301 -784 -558 -1453 -571
-1488 l-24 -62 318 0 317 0 120 314 c108 283 122 314 140 310 11 -3 337 -103
724 -222 l704 -217 35 -93 35 -92 319 0 c176 0 317 3 315 7 -2 5 -269 698
-592 1541 l-588 1532 -333 0 -333 0 -19 -52z m556 -1268 l198 -515 -204 -3
c-112 -1 -292 -1 -401 0 l-198 3 201 523 c110 288 202 520 203 515 2 -4 92
-240 201 -523z"/>
<path d="M6480 3220 l0 -1540 1135 0 1135 0 0 340 c0 187 -2 340 -5 340 -2 0
-13 -17 -24 -38 -29 -58 -109 -126 -175 -151 -58 -21 -67 -22 -525 -19 l-466
3 -65 31 c-95 45 -162 111 -207 202 -36 73 -38 80 -38 176 0 93 3 106 32 169
42 89 121 168 210 210 l68 32 295 0 295 0 67 -33 c36 -18 89 -53 117 -78 l51
-46 0 391 c0 215 -3 391 -6 391 -4 0 -25 -16 -47 -36 -22 -20 -69 -50 -106
-68 l-66 -31 -300 0 -300 0 -67 32 c-94 44 -160 109 -206 202 -35 71 -37 80
-37 175 0 89 3 108 28 160 37 81 89 141 159 186 107 70 125 72 638 68 l455 -3
50 -27 c60 -31 120 -89 146 -140 11 -21 22 -38 24 -38 3 0 5 153 5 340 l0 340
-1135 0 -1135 0 0 -1540z"/>
<path d="M20790 3220 l0 -1540 1135 0 1135 0 0 340 c0 187 -2 340 -5 340 -2 0
-13 -17 -24 -38 -29 -58 -109 -126 -175 -151 -58 -21 -67 -22 -525 -19 l-466
3 -68 32 c-89 42 -168 121 -210 210 -29 62 -32 76 -32 168 0 92 3 106 32 168
42 89 121 168 210 210 l68 32 295 0 295 0 65 -31 c36 -17 89 -52 118 -78 l52
-48 0 391 c0 215 -3 391 -6 391 -4 0 -25 -16 -47 -36 -22 -20 -69 -50 -106
-68 l-66 -31 -300 0 -300 0 -67 32 c-94 44 -160 109 -206 202 -35 72 -37 80
-37 176 0 93 2 105 32 165 43 86 85 135 155 180 107 70 125 72 638 68 l455 -3
52 -27 c63 -34 116 -84 143 -138 11 -22 23 -40 25 -40 3 0 5 153 5 340 l0 340
-1135 0 -1135 0 0 -1540z"/>
<path d="M13891 3362 c-66 -98 -116 -135 -264 -192 -132 -52 -325 -118 -597
-204 -265 -84 -402 -197 -445 -364 -19 -74 -17 -146 5 -150 9 -1 32 23 58 63
24 36 63 80 88 99 69 53 351 159 749 281 261 81 408 192 456 346 22 71 23 169
2 176 -6 2 -30 -23 -52 -55z"/>
<path d="M13786 2685 c-21 -32 -56 -68 -82 -85 -71 -45 -320 -137 -574 -212
-139 -41 -241 -91 -307 -151 -70 -65 -103 -129 -110 -218 -5 -63 -4 -69 13
-69 12 0 27 14 38 35 11 20 40 55 65 78 54 50 200 111 473 197 254 80 304 99
366 140 112 72 161 138 182 247 21 108 -6 124 -64 38z"/>
<path d="M13612 2110 c-12 -22 -39 -51 -60 -65 -45 -30 -240 -103 -387 -145
-259 -76 -365 -168 -365 -319 0 -40 24 -41 44 -3 41 78 160 136 461 227 252
75 341 148 361 293 6 47 5 52 -12 52 -12 0 -28 -16 -42 -40z"/>
</g>
</svg>
