<?xml version="1.0" standalone="no"?>
<!DOCTYPE svg PUBLIC "-//W3C//DTD SVG 20010904//EN"
 "http://www.w3.org/TR/2001/REC-SVG-20010904/DTD/svg10.dtd">
<svg version="1.0" xmlns="http://www.w3.org/2000/svg"
 width="474.000000pt" height="343.000000pt" viewBox="0 0 474.000000 343.000000"
 preserveAspectRatio="xMidYMid meet">
<metadata>
Created by potrace 1.16, written by Peter Selinger 2001-2019
</metadata>
<g transform="translate(0.000000,343.000000) scale(0.100000,-0.100000)"
fill="#000000" stroke="none">
<path d="M2066 2963 c-101 -15 -103 -102 -3 -127 38 -9 23 -28 -19 -24 -43 3
-61 -13 -39 -36 20 -20 55 -21 99 -2 63 26 48 95 -25 111 -42 9 -37 29 6 22
28 -5 35 -2 40 14 6 19 -10 51 -24 48 -3 -1 -19 -4 -35 -6z"/>
<path d="M2394 2930 c-62 -25 -84 -111 -39 -155 69 -70 184 21 145 114 -17 42
-61 59 -106 41z"/>
<path d="M2639 2911 c-20 -20 -37 -30 -49 -26 -26 8 -45 -19 -25 -38 8 -9 15
-19 15 -22 0 -12 -33 -80 -47 -96 -18 -22 -6 -51 20 -47 15 2 31 22 52 65 22
46 34 61 45 57 8 -4 24 -7 35 -8 28 -1 26 35 -3 50 -20 10 -21 13 -7 24 8 7
25 10 39 6 14 -3 28 -1 35 7 16 20 -7 45 -46 53 -27 5 -37 1 -64 -25z"/>
<path d="M1850 2903 c-14 -10 -33 -16 -44 -14 -10 1 -22 -2 -26 -8 -7 -13 29
-129 52 -162 30 -45 64 2 38 52 -12 22 -2 91 12 87 5 -2 19 -28 31 -58 17 -41
28 -56 45 -58 34 -5 35 19 4 86 -47 98 -63 109 -112 75z"/>
<path d="M1639 2791 c-23 -23 -29 -38 -29 -71 0 -84 90 -131 146 -75 14 14 32
25 40 25 30 0 26 30 -10 63 -19 19 -40 46 -45 60 -15 38 -62 37 -102 -2z"/>
<path d="M1476 2665 c-8 -8 -18 -24 -21 -35 -3 -11 -13 -20 -21 -20 -8 0 -19
-11 -25 -24 -6 -13 -20 -27 -30 -29 -11 -3 -19 -14 -19 -24 0 -22 111 -123
135 -123 30 0 29 30 -2 63 -26 27 -50 77 -37 77 2 0 26 -16 53 -35 48 -35 75
-43 85 -26 11 17 -5 37 -49 66 -27 17 -45 35 -45 46 0 27 13 24 75 -17 45 -30
57 -35 70 -24 26 21 17 35 -51 78 -70 45 -94 51 -118 27z"/>
<path d="M2869 2644 c-73 -41 -91 -95 -51 -151 31 -43 86 -59 151 -42 42 11
51 17 51 35 0 26 -83 104 -112 104 -34 0 -33 -30 3 -61 l34 -29 -27 0 c-26 0
-68 30 -68 48 2 30 75 72 127 72 37 0 50 -10 58 -43 8 -32 17 -39 39 -31 31
12 7 92 -33 114 -37 19 -123 11 -172 -16z"/>
<path d="M2378 2508 c-9 -7 -18 -26 -19 -43 -3 -34 17 -79 32 -70 17 11 9 -20
-16 -60 -13 -22 -25 -51 -25 -65 0 -14 -9 -42 -20 -63 -24 -44 -26 -83 -5 -91
8 -3 15 -13 15 -22 0 -15 -9 -16 -82 -11 -46 4 -106 7 -135 7 l-51 0 0 38 c0
20 1 51 4 68 4 29 8 32 53 37 86 10 144 35 164 68 30 54 20 64 -22 21 -32 -33
-48 -41 -91 -47 -33 -4 -69 -2 -98 6 -59 15 -59 15 -38 38 13 15 15 26 8 52
-7 30 -12 34 -42 34 -27 0 -37 -6 -47 -25 -18 -36 -16 -108 5 -173 26 -76 19
-109 -34 -159 -25 -23 -77 -86 -117 -140 l-72 -98 -324 0 -324 0 6 -147 c7
-157 18 -220 61 -346 63 -187 158 -339 297 -478 171 -171 369 -268 620 -305
277 -40 577 45 808 230 56 44 168 164 212 226 147 208 216 426 222 702 l2 113
-58 0 -57 0 0 52 c0 66 5 65 -210 61 l-165 -3 -5 -50 -5 -50 -70 -3 -70 -3
-86 113 c-47 62 -91 128 -98 146 -11 25 -12 64 -7 163 6 121 5 132 -14 156
-13 17 -20 41 -20 69 0 33 -5 46 -19 54 -26 13 -44 13 -63 -2z m113 -565 c24
-32 47 -62 51 -68 5 -5 31 -40 59 -77 l51 -68 310 0 c262 0 309 -2 314 -15 11
-27 -15 -210 -45 -316 -91 -321 -290 -567 -577 -712 -595 -300 -1306 65 -1474
755 -11 46 -23 129 -27 186 l-6 102 311 0 310 0 27 33 c32 38 32 39 118 150
l68 87 233 0 234 0 43 -57z"/>
<path d="M2175 1866 c-11 -8 -18 -26 -18 -46 0 -58 74 -84 109 -37 l17 23 23
-23 c34 -34 91 -32 104 3 14 35 14 34 -20 34 -30 0 -41 -14 -17 -23 6 -2 8 -8
4 -13 -13 -14 -42 11 -45 40 -4 31 21 45 50 27 23 -14 33 -9 25 14 -9 23 -79
20 -102 -5 l-18 -20 -14 20 c-17 24 -70 27 -98 6z"/>
<path d="M2149 1620 c-108 -18 -224 -110 -276 -218 -25 -51 -28 -68 -28 -162
0 -100 2 -108 34 -173 78 -156 246 -239 419 -208 86 15 157 56 217 124 70 79
95 146 96 259 1 87 -1 95 -37 165 -58 115 -155 190 -274 213 -59 11 -84 11
-151 0z m215 -104 c109 -53 170 -152 170 -276 1 -126 -63 -227 -179 -282 -185
-87 -396 25 -435 231 -27 144 69 300 214 347 63 21 164 12 230 -20z"/>
<path d="M2153 1521 c-38 -10 -123 -59 -123 -71 0 -5 16 -6 35 -3 29 5 39 1
66 -26 28 -28 31 -37 26 -72 -10 -79 -91 -106 -148 -50 -16 16 -29 39 -29 50
0 12 -4 21 -8 21 -14 0 -32 -74 -32 -132 0 -198 181 -330 376 -273 78 22 163
105 185 180 54 189 -65 367 -254 380 -34 2 -76 1 -94 -4z"/>
<path d="M1306 2434 c-3 -9 -6 -17 -6 -20 0 -2 27 -17 59 -34 49 -24 58 -33
54 -50 -7 -26 -23 -25 -82 5 -42 21 -51 22 -61 10 -7 -8 -10 -21 -7 -29 7 -16
108 -66 134 -66 27 1 52 23 64 59 6 17 15 31 20 31 5 0 9 8 9 19 0 13 -21 29
-76 55 -84 40 -99 43 -108 20z"/>
<path d="M2995 2418 c-33 -18 -45 -40 -45 -82 1 -43 18 -71 61 -99 28 -19 59
-14 59 9 0 7 -13 23 -30 36 -38 28 -47 54 -24 79 35 38 147 12 144 -34 -1 -12
-2 -28 -1 -34 2 -20 46 -15 65 6 17 18 16 21 -7 59 -14 21 -41 46 -60 55 -40
19 -132 22 -162 5z"/>
<path d="M1140 2241 c0 -25 17 -38 63 -46 l37 -7 0 -63 0 -62 -54 12 c-59 14
-80 8 -74 -21 2 -15 21 -23 88 -37 123 -26 166 -31 174 -19 12 21 -7 41 -45
47 l-39 7 0 57 c0 32 2 60 5 63 3 3 25 2 48 -3 31 -5 46 -4 56 6 20 20 6 45
-26 45 -15 0 -66 9 -113 20 -107 25 -120 25 -120 1z"/>
<path d="M3227 2224 c-4 -4 -7 -24 -7 -45 0 -36 -2 -39 -39 -49 -21 -5 -59
-13 -85 -16 -59 -8 -85 -30 -63 -51 13 -13 25 -13 101 2 48 10 89 15 92 12 3
-2 8 -22 11 -43 7 -42 18 -55 41 -46 15 5 14 48 -6 187 -7 47 -26 68 -45 49z"/>
</g>
</svg>
